{"title":"WWE Monday Night  RAW - 25_7_11 Bzingaz","uid":6565741,"size":610644977,"categoryP":"video","categoryS":"tv_shows","magnet":"?xt=urn:btih:03ca880709cb4142b0dfd734d8046f47fb8ae640&amp;dn=WWE+Monday+Night++RAW+-+25_7_11+Bzingaz&amp;tr=udp%3A%2F%2Ftracker.openbittorrent.com%3A80&amp;tr=udp%3A%2F%2Fopen.demonii.com%3A1337&amp;tr=udp%3A%2F%2Ftracker.coppersurfer.tk%3A6969&amp;tr=udp%3A%2F%2Fexodus.desync.com%3A6969","seeders":0,"leechers":1,"uploader":"bzingaz","files":7,"time":1311670315,"description":"WWE Monday Night  RAW - 25_7_11 in flv format in 7 parts!! it is in very good quality this time. please seed and comment!\n\nDetails of 1 of 7 files are:\n\n\nVideo\nFormat                           : AVC\nFormat/Info                      : Advanced Video Codec\nFormat profile                   : &lt;a class=&quot;__cf_email__&quot; href=&quot;/cdn-cgi/l/email-protection&quot; data-cfemail=&quot;9ad7fbf3f4dad6a9b4aa&quot;&gt;[email&amp;#160;protected]&lt;/a&gt;&lt;script cf-hash='f9e31' type=&quot;text/javascript&quot;&gt;\n/* &lt;![CDATA[ */!function(){try{var t=&quot;currentScript&quot;in document?document.currentScript:function(){for(var t=document.getElementsByTagName(&quot;script&quot;),e=t.length;e--;)if(t[e].getAttribute(&quot;cf-hash&quot;))return t[e]}();if(t&amp;&amp;t.previousSibling){var e,r,n,i,c=t.previousSibling,a=c.getAttribute(&quot;data-cfemail&quot;);if(a){for(e=&quot;&quot;,r=parseInt(a.substr(0,2),16),n=2;a.length-n;n+=2)i=parseInt(a.substr(n,2),16)^r,e+=String.fromCharCode(i);e=document.createTextNode(e),c.parentNode.replaceChild(e,c)}}}catch(u){}}();/* ]]&gt; */&lt;/script&gt;\nFormat settings, CABAC           : Yes\nFormat settings, ReFrames        : 3 frames\nFormat settings, GOP             : M=1, N=50\nCodec ID                         : 7\nDuration                         : 13mn 0s\nBit rate                         : 784 Kbps\nWidth                            : 626 pixels\nHeight                           : 360 pixels\nDisplay aspect ratio             : 16:9\nFrame rate mode                  : Constant\nFrame rate                       : 25.000 fps\nColor space                      : YUV\nChroma subsampling               : 4:2:0\nBit depth                        : 8 bits\nScan type                        : Progressive\nBits/(Pixel*Frame)               : 0.139\nStream size                      : 73.0 MiB (85%)\n\nAudio\nFormat                           : AAC\nFormat/Info                      : Advanced Audio Codec\nFormat profile                   : LC\nCodec ID                         : 10\nDuration                         : 13mn 0s\nBit rate                         : 129 Kbps\nChannel(s)                       : 2 channels\nChannel positions                : Front: L R\nSampling rate                    : 44.1 KHz\nCompression mode                 : Lossy\nStream size                      : 12.0 MiB (14%)\n","torrent":{"xt":"urn:btih:03ca880709cb4142b0dfd734d8046f47fb8ae640","amp;dn":"WWE+Monday+Night++RAW+-+25_7_11+Bzingaz","amp;tr":["udp%3A%2F%2Ftracker.openbittorrent.com%3A80","udp%3A%2F%2Fopen.demonii.com%3A1337","udp%3A%2F%2Ftracker.coppersurfer.tk%3A6969","udp%3A%2F%2Fexodus.desync.com%3A6969"],"infoHash":"03ca880709cb4142b0dfd734d8046f47fb8ae640","infoHashBuffer":{"type":"Buffer","data":[3,202,136,7,9,203,65,66,176,223,215,52,216,4,111,71,251,138,230,64]},"announce":[],"urlList":[]}}